<svg width="32" height="32" viewBox="0 0 32 32" fill="none" xmlns="http://www.w3.org/2000/svg">
<path d="M14.2133 8H18.6666C19.3738 8 20.0521 8.28095 20.5522 8.78105C21.0523 9.28115 21.3333 9.95942 21.3333 10.6667V14L28.3306 9.91733C28.4319 9.85821 28.547 9.82687 28.6643 9.82647C28.7816 9.82608 28.897 9.85663 28.9987 9.91507C29.1004 9.9735 29.1849 10.0577 29.2436 10.1593C29.3024 10.2608 29.3333 10.376 29.3333 10.4933V21.4213" stroke="#4A5565" stroke-width="2.66667" stroke-linecap="round" stroke-linejoin="round"/>
<path d="M21.3333 21.3333C21.3333 22.0406 21.0523 22.7189 20.5522 23.219C20.0521 23.719 19.3739 24 18.6666 24H5.33329C4.62605 24 3.94777 23.719 3.44767 23.219C2.94758 22.7189 2.66663 22.0406 2.66663 21.3333V10.6667C2.66663 9.95942 2.94758 9.28115 3.44767 8.78105C3.94777 8.28095 4.62605 8 5.33329 8H7.99996" stroke="#4A5565" stroke-width="2.66667" stroke-linecap="round" stroke-linejoin="round"/>
<path d="M2.66663 2.66669L29.3333 29.3334" stroke="#4A5565" stroke-width="2.66667" stroke-linecap="round" stroke-linejoin="round"/>
</svg>
