<svg width="20" height="20" viewBox="0 0 20 20" fill="none" xmlns="http://www.w3.org/2000/svg">
<path d="M10 2.5C10.5556 4.72222 11.6667 6.52778 13.3334 7.91667C15 9.30556 15.8334 10.8333 15.8334 12.5C15.8334 14.0471 15.2188 15.5308 14.1248 16.6248C13.0308 17.7188 11.5471 18.3333 10 18.3333C8.45292 18.3333 6.96919 17.7188 5.87523 16.6248C4.78127 15.5308 4.16669 14.0471 4.16669 12.5C4.16669 11.5985 4.45909 10.7212 5.00002 10C5.00002 10.5525 5.21951 11.0824 5.61021 11.4731C6.00092 11.8638 6.53082 12.0833 7.08335 12.0833C7.63589 12.0833 8.16579 11.8638 8.55649 11.4731C8.94719 11.0824 9.16669 10.5525 9.16669 10C9.16669 8.33333 7.91669 7.5 7.91669 5.83333C7.91669 4.72222 8.61113 3.61111 10 2.5Z" stroke="#FF751F" stroke-width="1.66667" stroke-linecap="round" stroke-linejoin="round"/>
</svg>
