<svg width="20" height="20" viewBox="0 0 20 20" fill="none" xmlns="http://www.w3.org/2000/svg">
<path d="M1.71768 10.286C1.64826 10.0989 1.64826 9.89321 1.71768 9.70618C2.39383 8.0667 3.54156 6.6649 5.01537 5.6785C6.48917 4.69211 8.22267 4.16553 9.99611 4.16553C11.7695 4.16553 13.5031 4.69211 14.9769 5.6785C16.4507 6.6649 17.5984 8.0667 18.2745 9.70618C18.344 9.89321 18.344 10.0989 18.2745 10.286C17.5984 11.9254 16.4507 13.3272 14.9769 14.3136C13.5031 15.3 11.7695 15.8266 9.99611 15.8266C8.22267 15.8266 6.48917 15.3 5.01537 14.3136C3.54156 13.3272 2.39383 11.9254 1.71768 10.286Z" stroke="#6A7282" stroke-width="1.66602" stroke-linecap="round" stroke-linejoin="round"/>
<path d="M9.99609 12.4951C11.3763 12.4951 12.4951 11.3763 12.4951 9.99609C12.4951 8.61592 11.3763 7.49707 9.99609 7.49707C8.61592 7.49707 7.49707 8.61592 7.49707 9.99609C7.49707 11.3763 8.61592 12.4951 9.99609 12.4951Z" stroke="#6A7282" stroke-width="1.66602" stroke-linecap="round" stroke-linejoin="round"/>
</svg>
