<svg width="16" height="16" viewBox="0 0 16 16" fill="none" xmlns="http://www.w3.org/2000/svg">
<path d="M12 2H10C9.63185 2 9.33337 2.29848 9.33337 2.66667V13.3333C9.33337 13.7015 9.63185 14 10 14H12C12.3682 14 12.6667 13.7015 12.6667 13.3333V2.66667C12.6667 2.29848 12.3682 2 12 2Z" stroke="white" stroke-width="1.33333" stroke-linecap="round" stroke-linejoin="round"/>
<path d="M6.00004 2H4.00004C3.63185 2 3.33337 2.29848 3.33337 2.66667V13.3333C3.33337 13.7015 3.63185 14 4.00004 14H6.00004C6.36823 14 6.66671 13.7015 6.66671 13.3333V2.66667C6.66671 2.29848 6.36823 2 6.00004 2Z" stroke="white" stroke-width="1.33333" stroke-linecap="round" stroke-linejoin="round"/>
</svg>
