<svg width="16" height="16" viewBox="0 0 16 16" fill="none" xmlns="http://www.w3.org/2000/svg">
<g clip-path="url(#clip0_5_1422)">
<path d="M10.6666 8.66664L14.1486 10.988C14.1988 11.0214 14.2571 11.0405 14.3174 11.0434C14.3776 11.0463 14.4375 11.0328 14.4906 11.0043C14.5438 10.9759 14.5882 10.9335 14.6192 10.8818C14.6502 10.8301 14.6666 10.7709 14.6666 10.7106V5.24664C14.6666 5.18799 14.6512 5.13037 14.6218 5.07961C14.5924 5.02884 14.5502 4.98672 14.4993 4.95751C14.4485 4.92829 14.3908 4.91301 14.3322 4.91321C14.2735 4.91341 14.2159 4.92908 14.1653 4.95864L10.6666 6.99997" stroke="white" stroke-width="1.33333" stroke-linecap="round" stroke-linejoin="round"/>
<path d="M9.33337 4H2.66671C1.93033 4 1.33337 4.59695 1.33337 5.33333V10.6667C1.33337 11.403 1.93033 12 2.66671 12H9.33337C10.0698 12 10.6667 11.403 10.6667 10.6667V5.33333C10.6667 4.59695 10.0698 4 9.33337 4Z" stroke="white" stroke-width="1.33333" stroke-linecap="round" stroke-linejoin="round"/>
</g>
<defs>
<clipPath id="clip0_5_1422">
<rect width="16" height="16" fill="white"/>
</clipPath>
</defs>
</svg>
