<svg width="16" height="16" viewBox="0 0 16 16" fill="none" xmlns="http://www.w3.org/2000/svg">
<g clip-path="url(#clip0_35_1007)">
<path d="M6.66016 9.76379V10.8467C6.65764 11.0749 6.59654 11.2986 6.48272 11.4964C6.36889 11.6942 6.20616 11.8595 6.01013 11.9763C5.59396 12.2845 5.25542 12.6856 5.02141 13.1476C4.78741 13.6096 4.66438 14.1198 4.66211 14.6377" stroke="#F0B100" stroke-width="1.33203" stroke-linecap="round" stroke-linejoin="round"/>
<path d="M9.32422 9.76379V10.8467C9.32673 11.0749 9.38783 11.2986 9.50166 11.4964C9.61548 11.6942 9.77822 11.8595 9.97425 11.9763C10.3904 12.2845 10.729 12.6856 10.963 13.1476C11.197 13.6096 11.32 14.1198 11.3223 14.6377" stroke="#F0B100" stroke-width="1.33203" stroke-linecap="round" stroke-linejoin="round"/>
<path d="M11.9883 5.99414H12.9873C13.4289 5.99414 13.8524 5.81872 14.1647 5.50646C14.4769 5.19421 14.6523 4.7707 14.6523 4.3291C14.6523 3.88751 14.4769 3.464 14.1647 3.15174C13.8524 2.83949 13.4289 2.66406 12.9873 2.66406H11.9883" stroke="#F0B100" stroke-width="1.33203" stroke-linecap="round" stroke-linejoin="round"/>
<path d="M2.66406 14.6523H13.3203" stroke="#F0B100" stroke-width="1.33203" stroke-linecap="round" stroke-linejoin="round"/>
<path d="M3.99609 5.99414C3.99609 7.05397 4.41711 8.07039 5.16652 8.81981C5.91594 9.56922 6.93236 9.99023 7.99219 9.99023C9.05202 9.99023 10.0684 9.56922 10.8179 8.81981C11.5673 8.07039 11.9883 7.05397 11.9883 5.99414V1.99805C11.9883 1.82141 11.9181 1.652 11.7932 1.5271C11.6683 1.4022 11.4989 1.33203 11.3223 1.33203H4.66211C4.48547 1.33203 4.31607 1.4022 4.19117 1.5271C4.06626 1.652 3.99609 1.82141 3.99609 1.99805V5.99414Z" stroke="#F0B100" stroke-width="1.33203" stroke-linecap="round" stroke-linejoin="round"/>
<path d="M3.99609 5.99414H2.99707C2.55547 5.99414 2.13197 5.81872 1.81971 5.50646C1.50745 5.19421 1.33203 4.7707 1.33203 4.3291C1.33203 3.88751 1.50745 3.464 1.81971 3.15174C2.13197 2.83949 2.55547 2.66406 2.99707 2.66406H3.99609" stroke="#F0B100" stroke-width="1.33203" stroke-linecap="round" stroke-linejoin="round"/>
</g>
<defs>
<clipPath id="clip0_35_1007">
<rect width="15.9844" height="15.9844" fill="white"/>
</clipPath>
</defs>
</svg>
