<svg width="16" height="16" viewBox="0 0 16 16" fill="none" xmlns="http://www.w3.org/2000/svg">
<path d="M10.3079 8.58496L11.3169 14.2634C11.3282 14.3303 11.3189 14.399 11.29 14.4604C11.2612 14.5218 11.2144 14.5729 11.1557 14.6069C11.0971 14.641 11.0294 14.6563 10.9618 14.6508C10.8942 14.6454 10.8299 14.6194 10.7775 14.5764L8.39313 12.7869C8.27802 12.7009 8.1382 12.6544 7.99452 12.6544C7.85084 12.6544 7.71101 12.7009 7.59591 12.7869L5.20757 14.5758C5.15517 14.6187 5.09093 14.6446 5.02342 14.6501C4.95591 14.6555 4.88834 14.6403 4.82972 14.6063C4.7711 14.5724 4.72423 14.5214 4.69535 14.4601C4.66648 14.3988 4.65697 14.3302 4.6681 14.2634L5.67645 8.58496" stroke="#1EC5FF" stroke-width="1.33203" stroke-linecap="round" stroke-linejoin="round"/>
<path d="M7.99219 9.32422C10.1992 9.32422 11.9883 7.53511 11.9883 5.32812C11.9883 3.12114 10.1992 1.33203 7.99219 1.33203C5.78521 1.33203 3.99609 3.12114 3.99609 5.32812C3.99609 7.53511 5.78521 9.32422 7.99219 9.32422Z" stroke="#1EC5FF" stroke-width="1.33203" stroke-linecap="round" stroke-linejoin="round"/>
</svg>
